<mxfile host="app.diagrams.net" modified="2023-02-24T08:49:27.405Z" agent="5.0 (Macintosh; Intel Mac OS X 10_15_7) AppleWebKit/605.1.15 (KHTML, like Gecko) Version/16.2 Safari/605.1.15" etag="b9tzPJldu8V0tMQcyXYQ" version="20.8.23" type="github">
  <diagram id="F--a-3hmtZKvsPh1SgEa" name="Page-1">
    <mxGraphModel dx="1164" dy="608" grid="0" gridSize="10" guides="1" tooltips="1" connect="1" arrows="1" fold="1" page="1" pageScale="1" pageWidth="827" pageHeight="1169" math="0" shadow="0">
      <root>
        <mxCell id="0" />
        <mxCell id="1" parent="0" />
        <mxCell id="J4pDN6XeMGnL4L7ZbYU3-5" value="&lt;div style=&quot;border-color: var(--border-color);&quot;&gt;&amp;nbsp;topic, content, image/video,&lt;/div&gt;&lt;div style=&quot;border-color: var(--border-color);&quot;&gt;categories, privacy&lt;/div&gt;" style="text;html=1;align=center;verticalAlign=middle;resizable=0;points=[];autosize=1;strokeColor=none;fillColor=none;" vertex="1" parent="1">
          <mxGeometry x="220" y="326.71" width="167" height="40" as="geometry" />
        </mxCell>
        <mxCell id="J4pDN6XeMGnL4L7ZbYU3-6" style="edgeStyle=orthogonalEdgeStyle;rounded=0;orthogonalLoop=1;jettySize=auto;html=1;exitX=1;exitY=0.75;exitDx=0;exitDy=0;entryX=0;entryY=0.5;entryDx=0;entryDy=0;" edge="1" parent="1" source="J4pDN6XeMGnL4L7ZbYU3-33" target="J4pDN6XeMGnL4L7ZbYU3-15">
          <mxGeometry relative="1" as="geometry">
            <mxPoint x="220" y="441" as="sourcePoint" />
            <Array as="points">
              <mxPoint x="235" y="437" />
              <mxPoint x="235" y="507" />
            </Array>
          </mxGeometry>
        </mxCell>
        <mxCell id="J4pDN6XeMGnL4L7ZbYU3-7" style="edgeStyle=orthogonalEdgeStyle;rounded=0;orthogonalLoop=1;jettySize=auto;html=1;exitX=0;exitY=0;exitDx=0;exitDy=0;entryX=0.25;entryY=1;entryDx=0;entryDy=0;" edge="1" parent="1" source="J4pDN6XeMGnL4L7ZbYU3-10" target="J4pDN6XeMGnL4L7ZbYU3-19">
          <mxGeometry relative="1" as="geometry">
            <Array as="points">
              <mxPoint x="401" y="299.71" />
              <mxPoint x="310" y="299.71" />
            </Array>
          </mxGeometry>
        </mxCell>
        <mxCell id="J4pDN6XeMGnL4L7ZbYU3-8" style="edgeStyle=orthogonalEdgeStyle;rounded=0;orthogonalLoop=1;jettySize=auto;html=1;exitX=1;exitY=0;exitDx=0;exitDy=0;entryX=0.75;entryY=1;entryDx=0;entryDy=0;" edge="1" parent="1" source="J4pDN6XeMGnL4L7ZbYU3-10" target="J4pDN6XeMGnL4L7ZbYU3-21">
          <mxGeometry relative="1" as="geometry">
            <Array as="points">
              <mxPoint x="457" y="299.71" />
              <mxPoint x="569" y="299.71" />
            </Array>
          </mxGeometry>
        </mxCell>
        <mxCell id="J4pDN6XeMGnL4L7ZbYU3-9" style="edgeStyle=orthogonalEdgeStyle;rounded=0;orthogonalLoop=1;jettySize=auto;html=1;exitX=1;exitY=0.5;exitDx=0;exitDy=0;entryX=0.5;entryY=0;entryDx=0;entryDy=0;entryPerimeter=0;" edge="1" parent="1" source="J4pDN6XeMGnL4L7ZbYU3-10">
          <mxGeometry relative="1" as="geometry">
            <mxPoint x="634.5" y="411.21" as="targetPoint" />
          </mxGeometry>
        </mxCell>
        <mxCell id="J4pDN6XeMGnL4L7ZbYU3-10" value="Posting&lt;br&gt;buzzes" style="ellipse;whiteSpace=wrap;html=1;aspect=fixed;" vertex="1" parent="1">
          <mxGeometry x="389" y="319.71" width="80" height="80" as="geometry" />
        </mxCell>
        <mxCell id="J4pDN6XeMGnL4L7ZbYU3-11" style="edgeStyle=orthogonalEdgeStyle;rounded=0;orthogonalLoop=1;jettySize=auto;html=1;exitX=1;exitY=1;exitDx=0;exitDy=0;entryX=0.731;entryY=-0.025;entryDx=0;entryDy=0;entryPerimeter=0;" edge="1" parent="1" source="J4pDN6XeMGnL4L7ZbYU3-15" target="J4pDN6XeMGnL4L7ZbYU3-28">
          <mxGeometry relative="1" as="geometry" />
        </mxCell>
        <mxCell id="J4pDN6XeMGnL4L7ZbYU3-12" style="edgeStyle=orthogonalEdgeStyle;rounded=0;orthogonalLoop=1;jettySize=auto;html=1;exitX=0.953;exitY=0.713;exitDx=0;exitDy=0;entryX=0;entryY=0;entryDx=0;entryDy=0;exitPerimeter=0;" edge="1" parent="1" source="J4pDN6XeMGnL4L7ZbYU3-15" target="J4pDN6XeMGnL4L7ZbYU3-16">
          <mxGeometry relative="1" as="geometry">
            <Array as="points">
              <mxPoint x="526" y="524" />
            </Array>
          </mxGeometry>
        </mxCell>
        <mxCell id="J4pDN6XeMGnL4L7ZbYU3-13" style="edgeStyle=orthogonalEdgeStyle;rounded=0;orthogonalLoop=1;jettySize=auto;html=1;exitX=0.94;exitY=0.288;exitDx=0;exitDy=0;entryX=0.5;entryY=1;entryDx=0;entryDy=0;entryPerimeter=0;exitPerimeter=0;" edge="1" parent="1" source="J4pDN6XeMGnL4L7ZbYU3-15" target="J4pDN6XeMGnL4L7ZbYU3-17">
          <mxGeometry relative="1" as="geometry" />
        </mxCell>
        <mxCell id="J4pDN6XeMGnL4L7ZbYU3-14" style="edgeStyle=orthogonalEdgeStyle;rounded=0;orthogonalLoop=1;jettySize=auto;html=1;exitX=0.951;exitY=0.288;exitDx=0;exitDy=0;entryX=1;entryY=0;entryDx=0;entryDy=0;exitPerimeter=0;" edge="1" parent="1" source="J4pDN6XeMGnL4L7ZbYU3-15" target="J4pDN6XeMGnL4L7ZbYU3-16">
          <mxGeometry relative="1" as="geometry" />
        </mxCell>
        <mxCell id="J4pDN6XeMGnL4L7ZbYU3-15" value="Re-buzz" style="ellipse;whiteSpace=wrap;html=1;aspect=fixed;" vertex="1" parent="1">
          <mxGeometry x="318.25" y="467" width="80" height="80" as="geometry" />
        </mxCell>
        <mxCell id="J4pDN6XeMGnL4L7ZbYU3-16" value="Mentioning system" style="ellipse;whiteSpace=wrap;html=1;aspect=fixed;" vertex="1" parent="1">
          <mxGeometry x="514" y="567" width="80" height="80" as="geometry" />
        </mxCell>
        <mxCell id="J4pDN6XeMGnL4L7ZbYU3-17" value="The page of&lt;br&gt;posted buzz" style="shape=card;whiteSpace=wrap;html=1;" vertex="1" parent="1">
          <mxGeometry x="582" y="387.5" width="107" height="77" as="geometry" />
        </mxCell>
        <mxCell id="J4pDN6XeMGnL4L7ZbYU3-18" style="edgeStyle=orthogonalEdgeStyle;rounded=0;orthogonalLoop=1;jettySize=auto;html=1;exitX=0.75;exitY=1;exitDx=0;exitDy=0;entryX=0.438;entryY=0.004;entryDx=0;entryDy=0;entryPerimeter=0;" edge="1" parent="1" source="J4pDN6XeMGnL4L7ZbYU3-19" target="J4pDN6XeMGnL4L7ZbYU3-10">
          <mxGeometry relative="1" as="geometry" />
        </mxCell>
        <mxCell id="J4pDN6XeMGnL4L7ZbYU3-19" value="Buzz entity(database)" style="shape=partialRectangle;whiteSpace=wrap;html=1;left=0;right=0;fillColor=none;rounded=0;strokeColor=default;fontFamily=Helvetica;fontSize=12;fontColor=default;" vertex="1" parent="1">
          <mxGeometry x="280.25" y="212.71" width="120" height="27" as="geometry" />
        </mxCell>
        <mxCell id="J4pDN6XeMGnL4L7ZbYU3-20" style="edgeStyle=orthogonalEdgeStyle;rounded=0;orthogonalLoop=1;jettySize=auto;html=1;exitX=0.25;exitY=1;exitDx=0;exitDy=0;entryX=0.575;entryY=0.007;entryDx=0;entryDy=0;entryPerimeter=0;" edge="1" parent="1" source="J4pDN6XeMGnL4L7ZbYU3-21" target="J4pDN6XeMGnL4L7ZbYU3-10">
          <mxGeometry relative="1" as="geometry" />
        </mxCell>
        <mxCell id="J4pDN6XeMGnL4L7ZbYU3-21" value="cloud" style="shape=partialRectangle;whiteSpace=wrap;html=1;left=0;right=0;fillColor=none;rounded=0;strokeColor=default;fontFamily=Helvetica;fontSize=12;fontColor=default;" vertex="1" parent="1">
          <mxGeometry x="503" y="213.71" width="87" height="26" as="geometry" />
        </mxCell>
        <mxCell id="J4pDN6XeMGnL4L7ZbYU3-22" value="image/video" style="text;html=1;align=center;verticalAlign=middle;resizable=0;points=[];autosize=1;strokeColor=none;fillColor=none;" vertex="1" parent="1">
          <mxGeometry x="489" y="299.71" width="90" height="30" as="geometry" />
        </mxCell>
        <mxCell id="J4pDN6XeMGnL4L7ZbYU3-23" value="url" style="text;html=1;align=center;verticalAlign=middle;resizable=0;points=[];autosize=1;strokeColor=none;fillColor=none;" vertex="1" parent="1">
          <mxGeometry x="469" y="254.71" width="40" height="30" as="geometry" />
        </mxCell>
        <mxCell id="J4pDN6XeMGnL4L7ZbYU3-24" value="buzz id" style="text;html=1;align=center;verticalAlign=middle;resizable=0;points=[];autosize=1;strokeColor=none;fillColor=none;" vertex="1" parent="1">
          <mxGeometry x="369" y="249.71" width="60" height="30" as="geometry" />
        </mxCell>
        <mxCell id="J4pDN6XeMGnL4L7ZbYU3-25" value="&lt;div style=&quot;&quot;&gt;user id, topic, content,&amp;nbsp;&lt;/div&gt;&lt;div style=&quot;&quot;&gt;url, categories, privacy&lt;/div&gt;" style="text;html=1;align=right;verticalAlign=middle;resizable=0;points=[];autosize=1;strokeColor=none;fillColor=none;" vertex="1" parent="1">
          <mxGeometry x="168" y="249.71" width="139" height="40" as="geometry" />
        </mxCell>
        <mxCell id="J4pDN6XeMGnL4L7ZbYU3-26" value="buzz id, &lt;br&gt;author id" style="text;html=1;align=right;verticalAlign=middle;resizable=0;points=[];autosize=1;strokeColor=none;fillColor=none;" vertex="1" parent="1">
          <mxGeometry x="165" y="462" width="65" height="40" as="geometry" />
        </mxCell>
        <mxCell id="J4pDN6XeMGnL4L7ZbYU3-27" style="edgeStyle=orthogonalEdgeStyle;rounded=0;orthogonalLoop=1;jettySize=auto;html=1;exitX=0.25;exitY=0;exitDx=0;exitDy=0;entryX=0.126;entryY=0.821;entryDx=0;entryDy=0;entryPerimeter=0;" edge="1" parent="1" source="J4pDN6XeMGnL4L7ZbYU3-28" target="J4pDN6XeMGnL4L7ZbYU3-15">
          <mxGeometry relative="1" as="geometry" />
        </mxCell>
        <mxCell id="J4pDN6XeMGnL4L7ZbYU3-28" value="Buzz entity (database)" style="shape=partialRectangle;whiteSpace=wrap;html=1;left=0;right=0;fillColor=none;rounded=0;strokeColor=default;fontFamily=Helvetica;fontSize=12;fontColor=default;" vertex="1" parent="1">
          <mxGeometry x="298.25" y="607" width="120" height="40" as="geometry" />
        </mxCell>
        <mxCell id="J4pDN6XeMGnL4L7ZbYU3-29" value="&lt;div style=&quot;text-align: left;&quot;&gt;current user id,&lt;/div&gt;&lt;div style=&quot;text-align: left;&quot;&gt;buzz id,&lt;/div&gt;&lt;div style=&quot;text-align: left;&quot;&gt;author id&lt;/div&gt;" style="text;html=1;align=center;verticalAlign=middle;resizable=0;points=[];autosize=1;strokeColor=none;fillColor=none;" vertex="1" parent="1">
          <mxGeometry x="381" y="547" width="98" height="54" as="geometry" />
        </mxCell>
        <mxCell id="J4pDN6XeMGnL4L7ZbYU3-30" value="current user id,&amp;nbsp;author id" style="text;html=1;align=center;verticalAlign=middle;resizable=0;points=[];autosize=1;strokeColor=none;fillColor=none;" vertex="1" parent="1">
          <mxGeometry x="392" y="505" width="148" height="26" as="geometry" />
        </mxCell>
        <mxCell id="J4pDN6XeMGnL4L7ZbYU3-31" value="new buzz id" style="text;html=1;align=center;verticalAlign=middle;resizable=0;points=[];autosize=1;strokeColor=none;fillColor=none;" vertex="1" parent="1">
          <mxGeometry x="247" y="557" width="90" height="30" as="geometry" />
        </mxCell>
        <mxCell id="J4pDN6XeMGnL4L7ZbYU3-32" style="edgeStyle=orthogonalEdgeStyle;rounded=0;orthogonalLoop=1;jettySize=auto;html=1;exitX=1;exitY=0.25;exitDx=0;exitDy=0;entryX=0;entryY=0.5;entryDx=0;entryDy=0;" edge="1" parent="1" source="J4pDN6XeMGnL4L7ZbYU3-33" target="J4pDN6XeMGnL4L7ZbYU3-10">
          <mxGeometry relative="1" as="geometry">
            <Array as="points">
              <mxPoint x="235" y="415" />
              <mxPoint x="235" y="360" />
            </Array>
          </mxGeometry>
        </mxCell>
        <mxCell id="J4pDN6XeMGnL4L7ZbYU3-33" value="User inputs" style="rounded=0;whiteSpace=wrap;html=1;" vertex="1" parent="1">
          <mxGeometry x="132" y="403.5" width="89" height="45" as="geometry" />
        </mxCell>
        <mxCell id="J4pDN6XeMGnL4L7ZbYU3-34" style="edgeStyle=orthogonalEdgeStyle;rounded=0;orthogonalLoop=1;jettySize=auto;html=1;exitX=1;exitY=0.5;exitDx=0;exitDy=0;entryX=0.5;entryY=0;entryDx=0;entryDy=0;" edge="1" parent="1" source="J4pDN6XeMGnL4L7ZbYU3-36" target="J4pDN6XeMGnL4L7ZbYU3-15">
          <mxGeometry relative="1" as="geometry" />
        </mxCell>
        <mxCell id="J4pDN6XeMGnL4L7ZbYU3-35" style="edgeStyle=orthogonalEdgeStyle;rounded=0;orthogonalLoop=1;jettySize=auto;html=1;exitX=1;exitY=0.5;exitDx=0;exitDy=0;entryX=0.5;entryY=1;entryDx=0;entryDy=0;" edge="1" parent="1" source="J4pDN6XeMGnL4L7ZbYU3-36" target="J4pDN6XeMGnL4L7ZbYU3-10">
          <mxGeometry relative="1" as="geometry" />
        </mxCell>
        <mxCell id="J4pDN6XeMGnL4L7ZbYU3-36" value="Browser" style="shape=partialRectangle;whiteSpace=wrap;html=1;left=0;right=0;fillColor=none;rounded=0;strokeColor=default;fontFamily=Helvetica;fontSize=12;fontColor=default;" vertex="1" parent="1">
          <mxGeometry x="281.13" y="413.5" width="57.75" height="25" as="geometry" />
        </mxCell>
        <mxCell id="J4pDN6XeMGnL4L7ZbYU3-37" value="current decoded user id" style="text;html=1;align=center;verticalAlign=middle;resizable=0;points=[];autosize=1;strokeColor=none;fillColor=none;" vertex="1" parent="1">
          <mxGeometry x="354" y="422.5" width="144" height="26" as="geometry" />
        </mxCell>
        <mxCell id="J4pDN6XeMGnL4L7ZbYU3-38" value="buzz id" style="text;html=1;align=center;verticalAlign=middle;resizable=0;points=[];autosize=1;strokeColor=none;fillColor=none;" vertex="1" parent="1">
          <mxGeometry x="525" y="338.71" width="56" height="26" as="geometry" />
        </mxCell>
        <mxCell id="J4pDN6XeMGnL4L7ZbYU3-39" value="new buzz id" style="text;html=1;align=center;verticalAlign=middle;resizable=0;points=[];autosize=1;strokeColor=none;fillColor=none;" vertex="1" parent="1">
          <mxGeometry x="479" y="470" width="81" height="26" as="geometry" />
        </mxCell>
      </root>
    </mxGraphModel>
  </diagram>
</mxfile>
